# xmcd
#
# Track frame offsets:
# 150
# 16133
# 34121
# 54258
# 70688
# 95213
# 115822
# 135285
# 154740
# 169287
# 199804
# 216922
# 232692
# 250460
# 275166
# 297985
#
# Disc length: 4215 seconds
#
#
# Revision: 7
# Processed by: cddbd v1.5.1PL0 Copyright (c) Steve Scherf et al.
# Submitted via: FreeRIP 2.943 
#
DISCID=e5107510
DTITLE=Monkey Business - The Black Eyed Peas
DYEAR=2005
DGENRE=Funk
TTITLE0=Monkey Business - Pump It
TTITLE1=Monkey Business - Don't Phunk With My Heart
TTITLE2=Monkey Business - My Style
TTITLE3=Monkey Business - Don't Lie
TTITLE4=Monkey Business - My Humps
TTITLE5=Monkey Business - Like That
TTITLE6=Monkey Business - Dum Diddy
TTITLE7=Monkey Business - Fell It
TTITLE8=Monkey Business - Gone Going
TTITLE9=Monkey Business - They Don't Want Music
TTITLE10=Monkey Business - Disco Club
TTITLE11=Monkey Business - Bebot
TTITLE12=Monkey Business - Ba Bump
TTITLE13=Monkey Business - Audio Delite At Low Pidelty
TTITLE14=Monkey Business - Union
TTITLE15=Monkey Business - Do What You Want (Bonus Track)
EXTD=YEAR: 2005
EXTT0=
EXTT1=
EXTT2=
EXTT3=
EXTT4=
EXTT5=
EXTT6=
EXTT7=
EXTT8=
EXTT9=
EXTT10=
EXTT11=
EXTT12=
EXTT13=
EXTT14=
EXTT15=
PLAYORDER=
